# xmcd
#
# Track frame offsets: 
#        150
#        15435
#        28410
#        47645
#        65047
#        91620
#        105725
#        167145
#        181957
#        194977
#        214610
#        228090
#        243977
#        257612
#        280742
#        301747
#
# Disc length: 4201 seconds
#
# Revision: 1
# Processed by: cddbd v1.5.1PL2 Copyright (c) Steve Scherf et al.
# Submitted via: ExactAudioCopy v0.95b3
#
DISCID=d5106710
DTITLE=Jazz and Jazz - Jazz Cinema
DYEAR=1900
DGENRE=Jazz
TTITLE0=Quincy Jones - The Pink Panther (Henry Mancini)
TTITLE1=Anita 'O Day - My Heart Belongs to Daddy (Cole Porter)
TTITLE2=Clifford Brown - Love is a many splendored things (Webster, Fa
TTITLE2=in)
TTITLE3=Stephane Grappelli, Michel Legrand - Les parapluies de Cherbou
TTITLE3=rg (Michel Legrand)
TTITLE4=Louis Armstrong with Ella Fitzgerald - Cheek to cheek (Irving 
TTITLE4=Berlin)
TTITLE5=Christian Escoude - When you wish upon a star (Leigh Harline, 
TTITLE5=Ned Washington)
TTITLE6=Stan Getz - On Green Dolphin Street (Bronislau Kaper, Ned Wash
TTITLE6=ington)
TTITLE7=Billy Eckstine - Laura (David Raskin, Johny Mercer)
TTITLE8=Ted Heath and His Music - Harlem Nocturne (Hagen, Rogers)
TTITLE9=Betty Carter - Girl talk (Neal Hefti, Bob Troup)
TTITLE10=Fred Astaire - The way you look tonight (Jerome Kern, Dorothy
TTITLE10=Fields)
TTITLE11=Oscar Peterson - People (Mrrill Styne)
TTITLE12=Duke Ellington - Stormy Weather (Koehler, Arlen)
TTITLE13=Bill Evans - Spartacus love theme (Alex North)
TTITLE14=Betty Carter - My favorite things (Richard Rodgers, Oscar Ham
TTITLE14=merstein II)
TTITLE15=Charlie Parker - Laura (David Raskin, Johny Mercer)
EXTD=
EXTT0=
EXTT1=
EXTT2=
EXTT3=
EXTT4=
EXTT5=
EXTT6=
EXTT7=
EXTT8=
EXTT9=
EXTT10=
EXTT11=
EXTT12=
EXTT13=
EXTT14=
EXTT15=
PLAYORDER=
